<svg width="190" height="55" viewBox="0 0 190 55" fill="none" xmlns="http://www.w3.org/2000/svg">
<path d="M96.2564 26.5328V18.2349C96.2564 15.947 95.4368 14.0006 93.8148 12.3786C92.1928 10.7566 90.2464 9.937 87.9585 9.937C85.2779 9.937 83.0924 11.0127 81.385 13.164C79.6776 11.0127 77.4922 9.937 74.8116 9.937C72.8139 9.937 71.0724 10.5517 69.5699 11.7981C69.3991 11.4737 69.1943 11.2005 68.9381 10.9444C68.2723 10.2785 67.4527 9.937 66.4966 9.937V26.5328C67.4527 26.5328 68.2723 26.1913 68.9381 25.5255C69.604 24.8596 69.9455 24.04 69.9455 23.101V18.3544C69.9455 17.0397 70.3894 15.8958 71.2773 14.9397C72.1651 13.9835 73.2749 13.4713 74.6238 13.3859H74.7262C76.058 13.3859 77.1848 13.8128 78.1068 14.6835C79.0459 15.5543 79.5581 16.6641 79.6606 18.013V23.101C79.6606 24.04 79.985 24.8425 80.6508 25.5084C81.3167 26.1743 82.1192 26.5157 83.0924 26.5328C83.0924 21.0009 83.0924 18.1837 83.1095 18.0983C83.1948 16.8007 83.6729 15.708 84.5266 14.8372C85.3974 13.9494 86.473 13.4713 87.7706 13.3859H87.8219C89.2219 13.3859 90.4 13.8469 91.3562 14.786C92.3294 15.708 92.8074 16.8519 92.8074 18.2349V23.101C92.8074 24.04 93.1489 24.8596 93.8148 25.5255C94.4807 26.1913 95.3002 26.5328 96.2564 26.5328Z" fill="#F0F3FE"/>
<path d="M115.43 26.5328V18.2349C115.43 15.9299 114.628 13.9835 113.006 12.3615C112.681 12.0542 112.357 11.7639 111.998 11.5078L111.947 11.4737C111.435 11.1151 110.889 10.8078 110.291 10.5517C110.018 10.4321 109.728 10.3297 109.403 10.2443C109.147 10.159 108.84 10.0907 108.447 10.0394C108.157 9.98822 107.85 9.95408 107.559 9.937H107.132C104.845 9.937 102.881 10.7395 101.259 12.3615C99.637 13.9835 98.8345 15.9299 98.8345 18.2349C98.8345 20.0447 99.3638 21.6668 100.405 23.101C102.13 25.3889 104.366 26.5328 107.132 26.5328H111.998C111.998 26.0377 111.896 25.5938 111.708 25.1669C111.008 23.7839 109.967 23.101 108.55 23.101H107.132C105.784 23.101 104.64 22.6229 103.701 21.6838C102.762 20.7277 102.283 19.5837 102.283 18.2349C102.283 16.8861 102.762 15.7421 103.701 14.8031C104.64 13.8469 105.784 13.3689 107.132 13.3689C108.481 13.3689 109.625 13.8469 110.564 14.8031C111.52 15.7421 111.998 16.8861 111.998 18.2349V23.101C111.998 23.6644 112.118 24.1937 112.374 24.6718C113.074 25.9182 114.099 26.5328 115.43 26.5328Z" fill="#F0F3FE"/>
<path d="M130.541 9.937H126.289C124.292 9.937 122.55 10.5517 121.048 11.7981C120.877 11.4737 120.672 11.2005 120.416 10.9444C119.75 10.2785 118.93 9.937 117.991 9.937V26.5328C119.323 26.5328 120.348 25.9182 121.048 24.6718C121.304 24.1937 121.423 23.6644 121.423 23.101V18.2349C121.423 16.8861 121.901 15.7421 122.857 14.8031C123.797 13.864 124.94 13.3859 126.289 13.3859H127.092C128.048 13.3859 128.867 13.0445 129.533 12.3786C129.909 11.9859 130.182 11.5419 130.37 11.0127C130.49 10.6712 130.541 10.3126 130.541 9.937Z" fill="#F0F3FE"/>
<path d="M138.685 26.5328C140.819 26.5328 142.766 25.7304 144.558 24.1083C145.532 23.118 146.197 22.0082 146.59 20.7618C146.061 20.4716 145.497 20.3179 144.9 20.3179C144.746 20.3179 144.456 20.3521 144.012 20.4033C143.568 20.4545 143.056 20.7618 142.475 21.3253L142.117 21.6668C141.127 22.6229 139.983 23.101 138.685 23.101C137.439 23.101 136.295 22.6229 135.253 21.6668C134.314 20.6253 133.836 19.4813 133.836 18.2349C133.836 16.9885 134.314 15.8446 135.253 14.8031C136.295 13.8469 137.439 13.3689 138.685 13.3689C139.983 13.3859 141.127 13.864 142.117 14.8031L142.475 15.1445C143.175 15.8104 143.995 16.1519 144.934 16.1519C145.515 16.1519 146.061 15.9982 146.59 15.708C146.197 14.4616 145.532 13.3518 144.558 12.3615C142.766 10.7395 140.819 9.937 138.685 9.937C136.482 9.937 134.519 10.7395 132.812 12.3615C131.19 14.1543 130.387 16.1007 130.387 18.2349C130.387 20.3691 131.19 22.3156 132.812 24.1083C134.519 25.7304 136.482 26.5328 138.685 26.5328Z" fill="#F0F3FE"/>
<path d="M163.152 26.5328C163.152 25.6279 162.845 24.8425 162.23 24.1766C161.547 23.4425 160.71 23.0839 159.72 23.0839H156.442C155.093 23.0839 153.949 22.6058 153.01 21.6668C152.071 20.7277 151.593 19.5837 151.593 18.2349C151.593 16.8861 152.071 15.7421 153.01 14.8031C153.949 13.8469 155.093 13.3689 156.442 13.3689C157.791 13.3689 158.935 13.8469 159.874 14.786C160.369 15.2811 160.727 15.8446 160.983 16.5105H155.878C154.939 16.5105 154.12 16.8519 153.454 17.5178C152.788 18.1837 152.447 19.0032 152.447 19.9423H164.569C164.689 19.3959 164.74 18.8325 164.74 18.2349C164.74 17.6373 164.689 17.0739 164.569 16.5105C164.21 14.8884 163.459 13.5054 162.315 12.3615C160.693 10.7395 158.73 9.937 156.442 9.937C154.154 9.937 152.19 10.7395 150.568 12.3615C148.946 13.9835 148.144 15.9299 148.144 18.2349C148.144 20.5228 148.946 22.4863 150.568 24.1083C152.19 25.7304 154.154 26.5328 156.442 26.5328H163.152Z" fill="#F0F3FE"/>
<path d="M170.733 26.5328V3.44893C170.733 2.49279 170.391 1.67324 169.725 1.00736C169.059 0.341478 168.24 0 167.301 0V23.101C167.301 24.04 167.642 24.8596 168.308 25.5255C168.974 26.1913 169.794 26.5328 170.733 26.5328Z" fill="#F0F3FE"/>
<path d="M181.626 26.5328C183.914 26.5328 185.86 25.7304 187.482 24.1083C189.104 22.4863 189.924 20.5228 189.924 18.2349C189.924 15.9299 189.104 13.9835 187.482 12.3615C185.86 10.7395 183.914 9.937 181.626 9.937C179.321 9.937 177.357 10.7395 175.735 12.3615C174.113 13.9835 173.311 15.9299 173.311 18.2349C173.311 20.5228 174.113 22.4863 175.735 24.1083C177.357 25.7304 179.321 26.5328 181.626 26.5328ZM181.626 23.0839C180.277 23.0839 179.133 22.6058 178.177 21.6668C177.238 20.7277 176.76 19.5837 176.76 18.2349C176.76 16.8861 177.238 15.7421 178.177 14.8031C179.133 13.8469 180.277 13.3689 181.626 13.3689C182.958 13.3689 184.102 13.8469 185.041 14.8031C185.997 15.7421 186.475 16.8861 186.475 18.2349C186.475 19.5837 185.997 20.7277 185.041 21.6668C184.102 22.6058 182.958 23.0839 181.626 23.0839Z" fill="#F0F3FE"/>
<path d="M74.7945 48.857C77.0824 48.857 79.0288 48.0546 80.6508 46.4325C82.2729 44.8105 83.0924 42.847 83.0924 40.5591V17.8912C82.1533 17.8912 81.3107 9.99063 80.7193 18.2513C80.0534 18.9171 79.6606 18.5724 79.6606 19.5115V40.5591C79.6606 41.908 79.1825 43.0519 78.2263 44.008C77.2873 44.9471 76.1433 45.4252 74.7945 45.4252C73.4627 45.4252 72.3188 44.9471 71.3626 44.008C70.4236 43.0519 69.9455 41.908 69.9455 40.5591C69.9455 39.2103 70.4236 38.0663 71.3626 37.1273C72.3188 36.1711 73.4627 35.6931 74.7945 35.6931H75.2555C76.1946 35.6931 76.997 35.3687 77.6629 34.7028C78.3288 34.0369 78.6703 33.2174 78.6873 32.2612H74.7945C73.9066 32.2612 73.053 32.3978 72.2505 32.6539C70.9699 33.0808 69.8601 33.7466 68.9211 34.6857C67.2991 36.3077 66.4966 38.2712 66.4966 40.5591C66.4966 42.847 67.2991 44.8105 68.9211 46.4325C70.5431 48.0546 72.5066 48.857 74.7945 48.857Z" fill="#F0F3FE"/>
<path d="M100.119 47.8163C100.119 46.9396 99.8215 46.1788 99.2261 45.5337C98.5644 44.8224 97.754 44.4751 96.7946 44.4751H93.6189C92.3122 44.4751 91.2039 44.012 90.2942 43.1022C89.3845 42.1925 88.9214 41.0843 88.9214 39.7776C88.9214 38.4709 89.3845 37.3627 90.2942 36.453C91.2039 35.5267 92.3122 35.0636 93.6189 35.0636C94.9255 35.0636 96.0338 35.5267 96.9435 36.4365C97.4232 36.9161 97.7705 37.462 98.0186 38.107H93.073C92.1633 38.107 91.3694 38.4378 90.7243 39.0829C90.0792 39.728 89.7484 40.5219 89.7484 41.4317H101.492C101.608 40.9024 101.658 40.3565 101.658 39.7776C101.658 39.1987 101.608 38.6529 101.492 38.107C101.145 36.5357 100.417 35.1959 99.3088 34.0877C97.7374 32.5164 95.8353 31.739 93.6189 31.739C91.4024 31.739 89.5003 32.5164 87.9289 34.0877C86.3576 35.6591 85.5802 37.5447 85.5802 39.7776C85.5802 41.994 86.3576 43.8962 87.9289 45.4675C89.5003 47.0389 91.4024 47.8163 93.6189 47.8163H100.119Z" fill="#F0F3FE"/>
<path d="M108.985 47.8163C110.325 47.8163 111.483 47.3366 112.425 46.3938C113.368 45.451 113.848 44.3097 113.848 42.9699C113.848 41.7459 113.451 40.6873 112.64 39.7776C111.698 38.6694 110.474 38.107 108.985 38.107C108.141 38.107 107.463 37.4289 107.463 36.5853C107.463 35.7418 108.141 35.0801 108.985 35.0801H110.507C111.516 35.0801 112.359 34.6832 113.037 33.9058C113.583 33.2938 113.848 32.566 113.848 31.739H108.985C107.645 31.739 106.487 32.2186 105.545 33.1614C104.602 34.1043 104.139 35.2455 104.139 36.5853C104.139 37.8093 104.536 38.8679 105.329 39.7776C105.908 40.4392 106.62 40.9189 107.463 41.2001C107.943 41.3655 108.456 41.4482 108.985 41.4482C109.828 41.4482 110.507 42.1264 110.507 42.9699C110.507 43.8135 109.828 44.4916 108.985 44.4916H107.463C106.553 44.4916 105.76 44.8225 105.114 45.4675C104.469 46.1126 104.139 46.9065 104.139 47.8163H108.985Z" fill="#F0F3FE"/>
<path d="M116.345 47.8163C117.272 47.8163 118.066 47.4855 118.711 46.8404C119.356 46.1953 119.687 45.4014 119.687 44.4751V31.739C118.777 31.739 117.983 32.0698 117.321 32.7149C116.676 33.3599 116.345 34.1539 116.345 35.0636V47.8163Z" fill="#F0F3FE"/>
<path d="M130.206 54.6806C132.423 54.6806 134.308 53.9032 135.88 52.3318C137.451 50.7605 138.245 48.8749 138.245 46.6419V36.4365C137.203 36.4365 136.343 36.85 135.665 37.677C135.168 38.2724 134.92 38.9671 134.92 39.7776C134.92 40.2573 134.854 40.7039 134.722 41.1339C134.358 42.2752 133.68 43.1684 132.671 43.7969C131.927 44.2435 131.116 44.4751 130.206 44.4751C129.297 44.4751 128.486 44.2435 127.758 43.7969C126.749 43.1684 126.071 42.2752 125.707 41.1339C125.575 40.7039 125.509 40.2573 125.509 39.7776C125.509 38.4709 125.972 37.3627 126.882 36.453C127.791 35.5267 128.9 35.0636 130.206 35.0636H134.92C135.83 35.0636 136.624 34.7328 137.269 34.0877C137.914 33.4426 138.245 32.6487 138.245 31.739H130.206C127.99 31.739 126.088 32.5329 124.516 34.1043C122.945 35.6756 122.168 37.5612 122.168 39.7776C122.168 41.2332 122.532 42.5729 123.243 43.7969C123.855 44.8721 124.682 45.7487 125.707 46.4434C127.047 47.3531 128.536 47.8163 130.206 47.8163C131.976 47.8163 133.547 47.3035 134.92 46.2946V46.6419C134.92 47.9486 134.457 49.0568 133.531 49.9665C132.621 50.8928 131.513 51.3559 130.206 51.3559H125.509C124.963 51.3559 124.45 51.4717 123.971 51.7198C122.763 52.398 122.168 53.3904 122.168 54.6806H130.206Z" fill="#F0F3FE"/>
<path d="M156.803 47.8163V39.7776C156.803 37.5612 156.009 35.6756 154.438 34.1043C152.867 32.5329 150.981 31.739 148.765 31.739C146.829 31.739 145.142 32.3344 143.687 33.5419C143.521 33.2276 143.323 32.963 143.075 32.7149C142.43 32.0698 141.636 31.739 140.726 31.739V47.8163C141.636 47.8163 142.43 47.4855 143.075 46.8404C143.72 46.1953 144.051 45.4014 144.051 44.4916V39.8934C144.051 38.6198 144.481 37.5116 145.341 36.5853C146.201 35.659 147.293 35.1628 148.599 35.0801H148.649C149.989 35.0801 151.13 35.5267 152.073 36.4365C153.016 37.3462 153.479 38.4544 153.479 39.7776V44.4916C153.479 45.4014 153.81 46.1953 154.455 46.8404C155.1 47.4855 155.894 47.8163 156.803 47.8163Z" fill="#F0F3FE"/>
<path d="M173.823 47.8163C173.823 46.9396 173.526 46.1788 172.93 45.5337C172.269 44.8224 171.458 44.4751 170.499 44.4751H167.323C166.016 44.4751 164.908 44.012 163.998 43.1022C163.089 42.1925 162.626 41.0843 162.626 39.7776C162.626 38.4709 163.089 37.3627 163.998 36.453C164.908 35.5267 166.016 35.0636 167.323 35.0636C168.63 35.0636 169.738 35.5267 170.648 36.4365C171.127 36.9161 171.475 37.462 171.723 38.107H166.777C165.867 38.107 165.074 38.4378 164.428 39.0829C163.783 39.728 163.453 40.5219 163.453 41.4317H175.196C175.312 40.9024 175.362 40.3565 175.362 39.7776C175.362 39.1987 175.312 38.6529 175.196 38.107C174.849 36.5357 174.121 35.1959 173.013 34.0877C171.442 32.5164 169.539 31.739 167.323 31.739C165.107 31.739 163.204 32.5164 161.633 34.0877C160.062 35.6591 159.284 37.5447 159.284 39.7776C159.284 41.994 160.062 43.8962 161.633 45.4675C163.204 47.0389 165.107 47.8163 167.323 47.8163H173.823Z" fill="#F0F3FE"/>
<path d="M190 31.739H185.881C183.946 31.739 182.259 32.3344 180.804 33.5419C180.638 33.2276 180.44 32.963 180.192 32.7149C179.546 32.0698 178.753 31.739 177.843 31.739V47.8163C179.133 47.8163 180.125 47.2208 180.804 46.0134C181.052 45.5502 181.167 45.0375 181.167 44.4916V39.7776C181.167 38.4709 181.631 37.3627 182.557 36.453C183.467 35.5433 184.575 35.0801 185.881 35.0801H186.659C187.585 35.0801 188.379 34.7493 189.024 34.1043C189.388 33.7238 189.653 33.2938 189.835 32.781C189.95 32.4502 190 32.1029 190 31.739Z" fill="#F0F3FE"/>
<path d="M26.6849 20.7275C17.8126 20.7275 8.96267 20.7275 0.0911865 20.7275C0.0911865 13.3838 6.04439 7.43062 13.388 7.43062C20.7317 7.43062 26.6849 13.3838 26.6849 20.7275Z" fill="url(#paint0_linear_201_11330)"/>
<path d="M29.1254 16.2904C28.5132 11.5848 25.1185 8.88677 23.1453 7.63162C37.5584 4.61333 42.4944 13.0746 42.5675 19.0034L42.8634 42.9902C32.6633 42.5787 29.8112 35.9541 29.6602 32.6933C29.502 28.8567 29.6304 20.1726 29.1254 16.2904Z" fill="url(#paint1_linear_201_11330)"/>
<path d="M45.5409 17.6948C44.921 12.3568 41.5218 9.29112 39.5464 7.86429C53.9548 4.46487 58.9049 14.0696 58.9878 20.7941L59.3235 48C49.1225 47.5163 46.2593 39.9982 46.1029 36.2995C45.9384 31.948 46.0524 22.0988 45.5409 17.6948Z" fill="url(#paint2_linear_201_11330)"/>
<path d="M13.3881 23.6085H26.6849V37.3485H25.3552C18.7459 37.3485 13.3881 31.9907 13.3881 25.3814V23.6085Z" fill="url(#paint3_linear_201_11330)"/>
<defs>
<linearGradient id="paint0_linear_201_11330" x1="0.0911865" y1="27.5" x2="59.3235" y2="27.5" gradientUnits="userSpaceOnUse">
<stop stop-color="#98F825"/>
<stop offset="1" stop-color="#B1DE7A"/>
</linearGradient>
<linearGradient id="paint1_linear_201_11330" x1="0.0911865" y1="27.5" x2="59.3235" y2="27.5" gradientUnits="userSpaceOnUse">
<stop stop-color="#98F825"/>
<stop offset="1" stop-color="#B1DE7A"/>
</linearGradient>
<linearGradient id="paint2_linear_201_11330" x1="0.0911865" y1="27.5" x2="59.3235" y2="27.5" gradientUnits="userSpaceOnUse">
<stop stop-color="#98F825"/>
<stop offset="1" stop-color="#B1DE7A"/>
</linearGradient>
<linearGradient id="paint3_linear_201_11330" x1="0.0911865" y1="27.5" x2="59.3235" y2="27.5" gradientUnits="userSpaceOnUse">
<stop stop-color="#98F825"/>
<stop offset="1" stop-color="#B1DE7A"/>
</linearGradient>
</defs>
</svg>
